<?xml version="1.0" encoding="UTF-8"?>
<svg width="228px" height="41px" viewBox="0 0 228 41" version="1.1" xmlns="http://www.w3.org/2000/svg" xmlns:xlink="http://www.w3.org/1999/xlink">

    <defs>
        <polygon id="path-1" points="9.98202252 16.8319377 9.98202252 0.0155480519 0.0205419516 0.0155480519 0.0205419516 16.8319377 9.98202252 16.8319377"></polygon>
    </defs>
    <g id="Page-1" stroke="none" stroke-width="1" fill="none" fill-rule="evenodd">
        <g id="Desktop-Home-Copy-5" transform="translate(-138.000000, -71.000000)">
            <g id="Group-4" transform="translate(138.000000, 71.000000)">
                <g id="Group-2">
                    <g id="Page-1">
                        <path d="M65.8481978,17.4950195 C68.1193706,17.4950195 69.4212365,16.2676818 69.4212365,14.4572922 L69.4212365,14.3960584 C69.4212365,12.3705519 68.0284817,11.3269156 65.7573089,11.3269156 L61.1251251,11.3269156 L61.1251251,17.4950195 L65.8481978,17.4950195 Z M56.4624698,9.42440909 C56.4624698,8.10495455 57.4916689,7.06131818 58.7935348,7.06131818 L66.1513361,7.06131818 C68.8459568,7.06131818 70.9353517,7.8286039 72.3281066,9.24017532 C73.5086121,10.4371623 74.1448347,12.1250844 74.1448347,14.1505909 L74.1448347,14.2118247 C74.1448347,17.5871364 72.479413,19.6738766 69.9061527,20.7478636 L73.1455817,24.7376429 C73.599501,25.3201623 73.9026393,25.8116299 73.9026393,26.5480325 C73.9026393,27.867487 72.8124973,28.7268896 71.691884,28.7268896 C70.6322135,28.7268896 69.9360987,28.2050714 69.3907651,27.4990195 L64.8494702,21.6685 L61.1251251,21.6685 L61.1251251,26.3637987 C61.1251251,27.6837857 60.0954006,28.7268896 58.7935348,28.7268896 C57.4916689,28.7268896 56.4624698,27.6837857 56.4624698,26.3637987 L56.4624698,9.42440909 Z" id="Fill-1" fill="#6031BA"></path>
                        <path d="M86.4971672,19.0294844 C86.2245004,16.9427442 85.0140488,15.5311727 83.0759604,15.5311727 C81.1683433,15.5311727 79.9268949,16.911861 79.5638645,19.0294844 L86.4971672,19.0294844 Z M83.5304051,28.9110169 C78.6549751,28.9110169 75.0519904,25.4430558 75.0519904,20.4107052 L75.0519904,20.3494714 C75.0519904,15.6536403 78.3523622,11.786861 83.0759604,11.786861 C88.4956732,11.786861 90.887681,16.2984584 90.887681,19.7051857 C90.887681,21.0549909 89.9488456,21.9452766 88.7378686,21.9452766 L79.624282,21.9452766 C80.0782014,24.0623675 81.5318991,25.1667052 83.5908226,25.1667052 C84.862217,25.1667052 85.9218875,24.767887 86.860723,24.0623675 C87.1938073,23.8169 87.4964202,23.6944325 87.980811,23.6944325 C89.0105354,23.6944325 89.767593,24.4920688 89.767593,25.5351727 C89.767593,26.1491078 89.4949262,26.6091597 89.1618419,26.9163935 C87.7386156,28.1437312 85.8919415,28.9110169 83.5304051,28.9110169 L83.5304051,28.9110169 Z" id="Fill-3" fill="#6031BA"></path>
                        <path d="M92.8852414,14.2424948 C92.8852414,12.9533909 93.9144404,11.910287 95.1863602,11.910287 C96.4582801,11.910287 97.4874791,12.9533909 97.4874791,14.2424948 L97.4874791,14.4267286 C98.5471496,13.0455078 99.909433,11.787287 102.241549,11.787287 C105.723173,11.787287 107.751625,14.1200273 107.751625,17.8941571 L107.751625,26.3944688 C107.751625,27.6835727 106.722426,28.7266766 105.450506,28.7266766 C104.179112,28.7266766 103.149387,27.6835727 103.149387,26.3944688 L103.149387,19.3669623 C103.149387,17.1577545 102.120188,16.0225338 100.363878,16.0225338 C98.6080925,16.0225338 97.4874791,17.1577545 97.4874791,19.3669623 L97.4874791,26.3944688 C97.4874791,27.6835727 96.4582801,28.7266766 95.1863602,28.7266766 C93.9144404,28.7266766 92.8852414,27.6835727 92.8852414,26.3944688 L92.8852414,14.2424948 Z" id="Fill-5" fill="#6031BA"></path>
                        <path d="M110.869379,23.8784 L110.869379,16.0836078 L110.718072,16.0836078 C109.62793,16.0836078 108.750038,15.1933221 108.750038,14.0889844 C108.750038,12.9841143 109.62793,12.094361 110.718072,12.094361 L110.869379,12.094361 L110.869379,10.0385039 C110.869379,8.7494 111.898578,7.70576364 113.170497,7.70576364 C114.442417,7.70576364 115.471616,8.7494 115.471616,10.0385039 L115.471616,12.094361 L117.500068,12.094361 C118.59021,12.094361 119.468103,12.9841143 119.468103,14.0889844 C119.468103,15.1933221 118.59021,16.0836078 117.500068,16.0836078 L115.471616,16.0836078 L115.471616,23.1111143 C115.471616,24.1851013 115.925536,24.7069195 116.95526,24.7069195 C117.106566,24.7069195 117.409179,24.6760364 117.500068,24.6760364 C118.529793,24.6760364 119.407685,25.5349065 119.407685,26.609426 C119.407685,27.4379455 118.862877,28.1131143 118.22718,28.3585818 C117.379233,28.6961662 116.59223,28.8186338 115.592451,28.8186338 C112.776996,28.8186338 110.869379,27.683413 110.869379,23.8784" id="Fill-7" fill="#6031BA"></path>
                        <path d="M134.546421,19.5510364 L131.609079,12.4622961 L128.672263,19.5510364 L134.546421,19.5510364 Z M121.435822,25.5045558 L128.82357,8.59604935 C129.338432,7.42941299 130.277267,6.72389351 131.548662,6.72389351 L131.821329,6.72389351 C133.092723,6.72389351 134.001087,7.42941299 134.515949,8.59604935 L141.904222,25.5045558 C142.055528,25.8421403 142.146417,26.149374 142.146417,26.4560753 C142.146417,27.7142961 141.177111,28.7265169 139.936188,28.7265169 C138.846046,28.7265169 138.119459,28.0822312 137.694961,27.100361 L136.27226,23.7250494 L126.946424,23.7250494 L125.46278,27.2537117 C125.069278,28.1743481 124.281749,28.7265169 123.312968,28.7265169 C122.101991,28.7265169 121.163155,27.7451792 121.163155,26.5173091 C121.163155,26.1797247 121.284516,25.8421403 121.435822,25.5045558 L121.435822,25.5045558 Z" id="Fill-9" fill="#6031BA"></path>
                        <path d="M147.17121,20.2878649 L147.17121,20.3490987 C147.17121,23.0801247 148.987938,24.8910468 151.13775,24.8910468 C153.287563,24.8910468 155.07382,23.0801247 155.07382,20.3490987 L155.07382,20.2878649 C155.07382,17.5563065 153.287563,15.7459169 151.13775,15.7459169 C148.987938,15.7459169 147.17121,17.5259558 147.17121,20.2878649 L147.17121,20.2878649 Z M159.61564,26.3947351 C159.61564,27.683839 158.586441,28.7269429 157.315046,28.7269429 C156.043127,28.7269429 155.013402,27.683839 155.013402,26.3947351 L155.013402,26.1796182 C153.893314,27.7141896 152.348727,28.8494104 149.957245,28.8494104 C146.172482,28.8494104 142.568972,25.8425662 142.568972,20.3490987 L142.568972,20.2878649 C142.568972,14.7949299 146.111539,11.7870208 149.957245,11.7870208 C152.40967,11.7870208 153.923786,12.922774 155.013402,14.2422286 L155.013402,8.28924156 C155.013402,7.00013766 156.043127,5.9565013 157.315046,5.9565013 C158.586441,5.9565013 159.61564,7.00013766 159.61564,8.28924156 L159.61564,26.3947351 Z" id="Fill-11" fill="#6031BA"></path>
                        <path d="M168.970476,28.8801338 L168.728281,28.8801338 C167.487358,28.8801338 166.639411,28.0824974 166.124549,26.8546273 L161.158755,15.2244714 C161.037395,14.9172377 160.91656,14.5184195 160.91656,14.0892506 C160.91656,12.9838481 161.915813,11.9103935 163.157261,11.9103935 C164.39871,11.9103935 165.064353,12.615913 165.397963,13.5669 L168.879587,23.1108481 L172.422154,13.5056662 C172.724767,12.7080299 173.36099,11.9103935 174.571967,11.9103935 C175.783469,11.9103935 176.782197,12.8613805 176.782197,14.1196013 C176.782197,14.5184195 176.63089,15.0093545 176.540001,15.2244714 L171.574733,26.8546273 C171.059871,28.0516143 170.211925,28.8801338 168.970476,28.8801338" id="Fill-13" fill="#6031BA"></path>
                        <path d="M178.477407,14.2424948 C178.477407,12.9533909 179.506606,11.910287 180.778526,11.910287 C182.050446,11.910287 183.079645,12.9533909 183.079645,14.2424948 L183.079645,26.3944688 C183.079645,27.6835727 182.050446,28.7266766 180.778526,28.7266766 C179.506606,28.7266766 178.477407,27.6835727 178.477407,26.3944688 L178.477407,14.2424948 Z M178.20474,8.16650779 C178.20474,6.81617013 179.324828,5.98765065 180.778526,5.98765065 C182.231698,5.98765065 183.351786,6.81617013 183.351786,8.16650779 L183.351786,8.22774156 C183.351786,9.57754675 182.231698,10.4374818 180.778526,10.4374818 C179.324828,10.4374818 178.20474,9.57754675 178.20474,8.22774156 L178.20474,8.16650779 Z" id="Fill-15" fill="#6031BA"></path>
                        <path d="M185.501126,26.9775208 C185.016735,26.6708195 184.623233,26.1186506 184.623233,25.3817156 C184.623233,24.3386117 185.410237,23.5404429 186.439961,23.5404429 C186.773046,23.5404429 187.10613,23.6330922 187.348325,23.7864429 C188.892387,24.768313 190.436973,25.2587156 191.738314,25.2587156 C193.070651,25.2587156 193.676402,24.768313 193.676402,24.0319104 L193.676402,23.9706766 C193.676402,22.9573909 192.101869,22.6198065 190.315613,22.0676377 C188.04444,21.3924688 185.470654,20.3184818 185.470654,17.1268714 L185.470654,17.0656377 C185.470654,13.7206766 188.135329,11.8490532 191.405229,11.8490532 C193.101122,11.8490532 194.857433,12.3091052 196.431966,13.1067416 C197.097609,13.444326 197.521582,14.058261 197.521582,14.8558974 C197.521582,15.8995338 196.704107,16.6971701 195.674383,16.6971701 C195.341298,16.6971701 195.129574,16.6359364 194.826962,16.4825857 C193.52457,15.8383 192.283647,15.4389494 191.31434,15.4389494 C190.194778,15.4389494 189.618973,15.9304169 189.618973,16.5747026 L189.618973,16.6359364 C189.618973,17.5565727 191.163034,17.986274 192.919345,18.6002091 C195.189992,19.3669623 197.824195,20.4718325 197.824195,23.4792091 L197.824195,23.5404429 C197.824195,27.1921052 195.129574,28.8496766 191.617479,28.8496766 C189.618973,28.8496766 187.46916,28.2666247 185.501126,26.9775208" id="Fill-17" fill="#6031BA"></path>
                        <path d="M211.721902,20.4105987 L211.721902,20.3493649 C211.721902,17.9250403 209.996063,15.8074169 207.452224,15.8074169 C204.81802,15.8074169 203.243488,17.8638065 203.243488,20.2881312 L203.243488,20.3493649 C203.243488,22.7731571 204.969327,24.8907805 207.512641,24.8907805 C210.14737,24.8907805 211.721902,22.8349234 211.721902,20.4105987 M198.702193,20.4105987 L198.702193,20.3493649 C198.702193,15.6231831 202.456484,11.787287 207.512641,11.787287 C212.539378,11.787287 216.263723,15.5619494 216.263723,20.2881312 L216.263723,20.3493649 C216.263723,25.0750143 212.508906,28.9109104 207.452224,28.9109104 C202.426538,28.9109104 198.702193,25.1362481 198.702193,20.4105987" id="Fill-19" fill="#6031BA"></path>
                        <g id="Group-23" transform="translate(218.028387, 11.894739)">
                            <mask id="mask-2" fill="white">
                                <use xlink:href="#path-1"></use>
                            </mask>
                            <g id="Clip-22"></g>
                            <path d="M0.0205419516,2.34775584 C0.0205419516,1.05865195 1.04974101,0.0155480519 2.32166083,0.0155480519 C3.59358065,0.0155480519 4.6227797,1.05865195 4.6227797,2.34775584 L4.6227797,3.08415844 C5.28894837,1.48835325 6.3790903,0.0155480519 7.74137369,0.0155480519 C9.16459995,0.0155480519 9.98207506,0.966535065 9.98207506,2.28652208 C9.98207506,3.51332727 9.19507139,4.25026234 8.2562359,4.46537922 C5.92464559,5.01754805 4.6227797,6.82793766 4.6227797,10.1425481 L4.6227797,14.4997299 C4.6227797,15.7888338 3.59358065,16.8319377 2.32166083,16.8319377 C1.04974101,16.8319377 0.0205419516,15.7888338 0.0205419516,14.4997299 L0.0205419516,2.34775584 Z" id="Fill-21" fill="#6031BA" mask="url(#mask-2)"></path>
                        </g>
                        <path d="M34.9283577,4.67341429 C35.7752535,4.67714156 36.3825808,4.73944026 36.9237115,4.86776494 C40.9438397,5.81981688 43.6058875,9.17808961 43.6058875,13.2248429 L43.6058875,20.791739 C43.6058875,21.5350636 43.6153441,22.1170506 43.4708675,22.7411026 C42.4742414,27.064739 39.2820956,29.8181286 35.2777285,29.8181286 L17.2701599,29.8181286 C12.20297,29.8181286 8.69665324,31.1045701 5.54496097,34.0251545 C5.45091982,34.1124792 5.32535648,34.165726 5.1987424,34.1380377 C5.12939362,34.1225961 5.00435565,34.0842584 4.94341278,33.9351675 C4.68125334,33.2983364 4.5541139,32.5938818 4.5541139,31.7717519 C4.55358853,31.6498169 4.53572596,18.3402584 4.5541139,13.5863883 C4.55779148,12.8595701 4.63554619,12.1593753 4.78475115,11.5039078 C5.71885831,7.46088182 9.03604201,4.71654416 13.0346301,4.67394675 L34.9283577,4.67341429 Z M38.027513,0.347115584 L38.007549,0.307180519 C37.0692388,0.085674026 36.0894245,-5.32467533e-05 34.9367636,-5.32467533e-05 L13.014666,-5.32467533e-05 C6.87939978,-5.32467533e-05 1.75231779,4.21975195 0.314381173,10.4421675 C0.0858453937,11.4368169 0.000210147843,12.4325312 0.000210147843,13.5613623 L0.000210147843,31.7611026 C0.000210147843,35.0144792 1.28316273,37.6864013 3.73138509,39.6991286 L4.51786339,40.3482065 C4.74902602,40.5436221 5.04375837,40.6479857 5.3405922,40.6479857 C5.38367251,40.6479857 5.43148114,40.6458558 5.47508682,40.6410636 C5.8176278,40.6064532 6.12759587,40.437661 6.34299741,40.1655701 L7.18411415,39.1453623 C9.70115993,36.0240377 12.9064399,34.6103364 17.2701599,34.6103364 L35.2971672,34.6103364 C41.3147506,34.6103364 46.5726497,30.1668948 48.0268727,23.8619468 C48.2948112,22.7080896 48.3342139,21.6404922 48.3342139,20.8002584 L48.3342139,13.205674 C48.3342139,6.97154416 44.1685583,1.80394675 38.027513,0.347115584 L38.027513,0.347115584 Z" id="Fill-24" fill="#6031BA"></path>
                        <path d="M33.0982852,23.9145013 L33.0982852,27.6806442 C38.5926006,27.6806442 40.9404773,22.9182545 40.9404773,20.7660208 L37.4115697,20.7660208 C36.9072149,23.9166312 33.0982852,23.9145013 33.0982852,23.9145013" id="Fill-26" fill="#6031BA"></path>
                    </g>
                </g>
            </g>
        </g>
    </g>
</svg>